<?xml version="1.0" standalone="no"?>
<!DOCTYPE svg PUBLIC "-//W3C//DTD SVG 20010904//EN"
 "http://www.w3.org/TR/2001/REC-SVG-20010904/DTD/svg10.dtd">
<svg version="1.0" xmlns="http://www.w3.org/2000/svg"
 width="451.000000pt" height="492.000000pt" viewBox="0 0 451.000000 492.000000"
 preserveAspectRatio="xMidYMid meet">
<metadata>
Created by potrace 1.15, written by Peter Selinger 2001-2017
</metadata>
<g transform="translate(0.000000,492.000000) scale(0.100000,-0.100000)"
fill="#000000" stroke="none">
<path d="M1110 2458 l0 -1703 275 -146 275 -147 0 1559 0 1559 458 0 c485 -1
551 -6 662 -50 218 -87 391 -286 457 -530 26 -94 25 -417 -1 -509 -65 -233
-231 -430 -434 -515 -76 -32 -173 -56 -229 -56 l-43 0 0 484 0 485 -97 57
c-54 32 -150 88 -213 124 -63 37 -132 77 -152 89 l-38 23 0 -922 0 -922 318 5
c245 3 333 8 387 20 270 63 489 188 677 386 180 189 304 429 365 704 26 118
26 465 0 587 -93 435 -355 789 -722 977 -115 58 -194 87 -320 116 -86 20 -124
21 -857 24 l-768 4 0 -1703z"/>
</g>
</svg>
